C:\Users\r0593348\3dpredictsim\Results\batch_windlass\Pog_s1_tmt_bCst_d05_k1000_WL40_ig24_act_TTC_GRF.mot
nRows=15
nColumns=19

name C:\Users\r0593348\3dpredictsim\Results\batch_windlass\Pog_s1_tmt_bCst_d05_k1000_WL40_ig24_act_TTC_GRF.mot
datacolumns 19
datarows 15
range 0.0000000000 0.1682429617
endheader
time 	ground_force_vx	ground_force_vy	ground_force_vz	ground_force_px	ground_force_py	ground_force_pz	1_ground_force_vx	1_ground_force_vy	1_ground_force_vz	1_ground_force_px	1_ground_force_py	1_ground_force_pz	ground_torque_x	ground_torque_y	ground_torque_z	1_ground_torque_x	1_ground_torque_y	1_ground_torque_z
        0.0000000000	      -44.3658205062	       33.2787920474	        8.7895498873	        0.1633652725	        0.0000000000	        0.0552587842	       55.6853369139	      297.4591086819	       -2.0875626852	       -0.3525534026	        0.0000000000	       -0.0298068143	        0.0000000000	        0.0000000000	        0.0000000000	        0.0000000000	        0.0000000000	        0.0000000000	
        0.0120173544	     -111.5954813741	       97.6257678067	       26.7025362177	        0.1737769260	        0.0000000000	        0.0533396475	       34.3361495924	      210.1136262682	       -8.0273052535	       -0.3418774001	        0.0000000000	       -0.0240927878	        0.0000000000	        0.0000000000	        0.0000000000	        0.0000000000	        0.0000000000	        0.0000000000	
        0.0240347088	     -119.0841509449	      249.9181342059	       38.0723002977	        0.1826642661	        0.0000000000	        0.0524096208	       20.2556054863	      163.3589926263	      -16.9234801589	       -0.3401944232	        0.0000000000	       -0.0234473970	        0.0000000000	        0.0000000000	        0.0000000000	        0.0000000000	        0.0000000000	        0.0000000000	
        0.0360520632	      -83.6145617176	      555.0999566235	       -4.2463681457	        0.1940028851	        0.0000000000	        0.0535003009	       12.2540118207	      108.8531666595	      -14.5523509041	       -0.3400248054	        0.0000000000	       -0.0234320167	        0.0000000000	        0.0000000000	        0.0000000000	        0.0000000000	        0.0000000000	        0.0000000000	
        0.0480694176	     -115.2378921103	      852.8727329122	      -25.1664313435	        0.2042623651	        0.0000000000	        0.0556153192	       -5.4515919355	       47.1746129832	       -6.6795584759	       -0.3414178145	        0.0000000000	       -0.0231072877	        0.0000000000	        0.0000000000	        0.0000000000	        0.0000000000	        0.0000000000	        0.0000000000	
        0.0600867720	     -141.5953100582	      963.4065603322	      -28.6213923336	        0.2103287630	        0.0000000000	        0.0567542949	       -3.6678824823	        3.7403603956	        0.2801304313	        0.0000000000	        0.0000000000	        0.0000000000	        0.0000000000	        0.0000000000	        0.0000000000	        0.0000000000	        0.0000000000	        0.0000000000	
        0.0721041264	     -143.6978936045	      962.4684541219	      -28.1807281821	        0.2161253137	        0.0000000000	        0.0571437413	       -2.0854747456	        1.8390623234	        0.2252537138	        0.0000000000	        0.0000000000	        0.0000000000	        0.0000000000	        0.0000000000	        0.0000000000	        0.0000000000	        0.0000000000	        0.0000000000	
        0.0841214808	     -136.8141397602	      915.0134064332	      -24.5679730559	        0.2220731544	        0.0000000000	        0.0570047747	       -0.1681799701	        0.1279989286	        0.0177477800	        0.0000000000	        0.0000000000	        0.0000000000	        0.0000000000	        0.0000000000	        0.0000000000	        0.0000000000	        0.0000000000	        0.0000000000	
        0.0961388352	     -124.7988752691	      865.6140477946	      -21.2591053663	        0.2281658230	        0.0000000000	        0.0565301662	       -0.3147773714	        0.2160311663	        0.0309782302	        0.0000000000	        0.0000000000	        0.0000000000	        0.0000000000	        0.0000000000	        0.0000000000	        0.0000000000	        0.0000000000	        0.0000000000	
        0.1081561896	     -110.0446945347	      808.1478384281	      -19.9726193713	        0.2338833830	        0.0000000000	        0.0560156351	       -0.0822463137	        0.0521640383	        0.0067687688	        0.0000000000	        0.0000000000	        0.0000000000	        0.0000000000	        0.0000000000	        0.0000000000	        0.0000000000	        0.0000000000	        0.0000000000	
        0.1201735440	      -93.9203140812	      757.6994851081	      -20.4965008573	        0.2380736119	        0.0000000000	        0.0556276398	       -0.2137532429	        0.1288932079	        0.0150463655	        0.0000000000	        0.0000000000	        0.0000000000	        0.0000000000	        0.0000000000	        0.0000000000	        0.0000000000	        0.0000000000	        0.0000000000	
        0.1321908985	      -80.5978232595	      719.0239883190	      -21.1512108333	        0.2418150865	        0.0000000000	        0.0553941715	       -0.1430803321	        0.0821619260	        0.0090497258	        0.0000000000	        0.0000000000	        0.0000000000	        0.0000000000	        0.0000000000	        0.0000000000	        0.0000000000	        0.0000000000	        0.0000000000	
        0.1442082529	      -68.4137133215	      687.4284991311	      -21.8477460468	        0.2452229397	        0.0000000000	        0.0552633343	       -0.0715710894	        0.0387891170	        0.0046369423	        0.0000000000	        0.0000000000	        0.0000000000	        0.0000000000	        0.0000000000	        0.0000000000	        0.0000000000	        0.0000000000	        0.0000000000	
        0.1562256073	      -57.1985692279	      659.8286628360	      -22.0909356657	        0.2484958458	        0.0000000000	        0.0552096324	       -0.0391897735	        0.0201698487	        0.0025783461	        0.0000000000	        0.0000000000	        0.0000000000	        0.0000000000	        0.0000000000	        0.0000000000	        0.0000000000	        0.0000000000	        0.0000000000	
        0.1682429617	      -47.3047624251	      636.1940350815	      -22.3344905884	        0.2518159537	        0.0000000000	        0.0551933394	       -0.0261129054	        0.0128503588	        0.0017482808	        0.0000000000	        0.0000000000	        0.0000000000	        0.0000000000	        0.0000000000	        0.0000000000	        0.0000000000	        0.0000000000	        0.0000000000	
